<svg width="88" height="14" viewBox="0 0 88 14" fill="none" xmlns="http://www.w3.org/2000/svg">
<path d="M10.25 10.66V13H0.494V0.399999H10.016V2.74H3.392V5.476H9.242V7.744H3.392V10.66H10.25ZM15.0542 4.594C15.3902 4.126 15.8402 3.772 16.4042 3.532C16.9802 3.292 17.6402 3.172 18.3842 3.172V5.764C18.0722 5.74 17.8622 5.728 17.7542 5.728C16.9502 5.728 16.3202 5.956 15.8642 6.412C15.4082 6.856 15.1802 7.528 15.1802 8.428V13H12.3722V3.316H15.0542V4.594ZM22.7358 4.594C23.0718 4.126 23.5218 3.772 24.0858 3.532C24.6618 3.292 25.3218 3.172 26.0658 3.172V5.764C25.7538 5.74 25.5438 5.728 25.4358 5.728C24.6318 5.728 24.0018 5.956 23.5458 6.412C23.0898 6.856 22.8618 7.528 22.8618 8.428V13H20.0538V3.316H22.7358V4.594ZM32.2556 13.144C31.2356 13.144 30.3176 12.934 29.5016 12.514C28.6976 12.082 28.0676 11.488 27.6116 10.732C27.1556 9.976 26.9276 9.118 26.9276 8.158C26.9276 7.198 27.1556 6.34 27.6116 5.584C28.0676 4.828 28.6976 4.24 29.5016 3.82C30.3176 3.388 31.2356 3.172 32.2556 3.172C33.2756 3.172 34.1876 3.388 34.9916 3.82C35.7956 4.24 36.4256 4.828 36.8816 5.584C37.3376 6.34 37.5656 7.198 37.5656 8.158C37.5656 9.118 37.3376 9.976 36.8816 10.732C36.4256 11.488 35.7956 12.082 34.9916 12.514C34.1876 12.934 33.2756 13.144 32.2556 13.144ZM32.2556 10.84C32.9756 10.84 33.5636 10.6 34.0196 10.12C34.4876 9.628 34.7216 8.974 34.7216 8.158C34.7216 7.342 34.4876 6.694 34.0196 6.214C33.5636 5.722 32.9756 5.476 32.2556 5.476C31.5356 5.476 30.9416 5.722 30.4736 6.214C30.0056 6.694 29.7716 7.342 29.7716 8.158C29.7716 8.974 30.0056 9.628 30.4736 10.12C30.9416 10.6 31.5356 10.84 32.2556 10.84ZM42.1245 4.594C42.4605 4.126 42.9105 3.772 43.4745 3.532C44.0505 3.292 44.7105 3.172 45.4545 3.172V5.764C45.1425 5.74 44.9325 5.728 44.8245 5.728C44.0205 5.728 43.3905 5.956 42.9345 6.412C42.4785 6.856 42.2505 7.528 42.2505 8.428V13H39.4425V3.316H42.1245V4.594ZM63.2361 10.354H61.1841V13H58.3401V10.354H51.5541V8.392L57.4941 0.399999H60.5541L55.0461 7.978H58.4301V5.62H61.1841V7.978H63.2361V10.354ZM69.5083 13.216C68.4643 13.216 67.5343 12.958 66.7183 12.442C65.9023 11.926 65.2603 11.182 64.7923 10.21C64.3363 9.226 64.1083 8.056 64.1083 6.7C64.1083 5.344 64.3363 4.18 64.7923 3.208C65.2603 2.224 65.9023 1.474 66.7183 0.957999C67.5343 0.442 68.4643 0.184 69.5083 0.184C70.5523 0.184 71.4823 0.442 72.2983 0.957999C73.1143 1.474 73.7503 2.224 74.2063 3.208C74.6743 4.18 74.9083 5.344 74.9083 6.7C74.9083 8.056 74.6743 9.226 74.2063 10.21C73.7503 11.182 73.1143 11.926 72.2983 12.442C71.4823 12.958 70.5523 13.216 69.5083 13.216ZM69.5083 10.75C70.2763 10.75 70.8763 10.42 71.3083 9.76C71.7523 9.1 71.9743 8.08 71.9743 6.7C71.9743 5.32 71.7523 4.3 71.3083 3.64C70.8763 2.98 70.2763 2.65 69.5083 2.65C68.7523 2.65 68.1523 2.98 67.7083 3.64C67.2763 4.3 67.0603 5.32 67.0603 6.7C67.0603 8.08 67.2763 9.1 67.7083 9.76C68.1523 10.42 68.7523 10.75 69.5083 10.75ZM87.863 10.354H85.811V13H82.967V10.354H76.181V8.392L82.121 0.399999H85.181L79.673 7.978H83.057V5.62H85.811V7.978H87.863V10.354Z" fill="white"/>
</svg>
