<svg width="211" height="73" viewBox="0 0 211 73" fill="none" xmlns="http://www.w3.org/2000/svg">
<path d="M63.32 13.552C63.32 9.232 58.136 7.12 54.872 7.12C52.28 7.12 49.592 7.696 46.904 8.65599C43.832 3.75999 38.936 0.207994 32.504 0.207994C12.92 0.207994 0.536 21.424 0.536 39.856C0.536 54.064 8.024 72.688 24.152 72.688C43.448 72.688 51.896 48.304 51.896 32.848C51.896 30.928 51.224 26.992 50.264 26.128C50.552 24.496 50.744 22.96 50.744 21.712C50.744 18.736 50.168 15.568 49.016 12.688C50.84 11.92 52.76 11.44 54.584 11.44C56.984 11.44 59.192 12.208 59.96 14.704C60.344 15.856 60.728 16.432 61.688 16.432C62.648 16.432 63.32 15.184 63.32 13.552ZM24.44 34.672C24.44 41.488 27.224 45.232 33.464 45.232C40.376 45.232 44.888 40.144 47.576 34.384C46.136 47.824 36.824 64.144 26.744 64.144C14.456 64.144 9.656 53.296 9.656 40.624C9.656 22.864 18.296 5.296 32.696 5.296C35.768 5.296 38.84 7.504 41.048 11.344C32.12 16.624 24.44 25.84 24.44 34.672ZM44.024 23.632C44.024 32.752 38.936 41.488 35 41.488C33.176 41.488 31.832 39.76 31.832 36.016C31.832 29.2 36.824 21.328 43.064 16.336C43.64 18.544 44.024 20.944 44.024 23.632ZM71.4455 38.704L71.6375 41.008L72.5015 53.2C71.5415 53.392 71.1575 53.392 70.2935 53.392C67.0295 53.392 66.1655 53.296 64.1495 52.912V48.496C64.1495 44.56 64.4375 42.16 64.6295 40.528C64.7255 39.76 64.8215 39.568 64.8215 38.8C64.1495 38.224 62.0375 37.84 61.1735 37.84C60.4055 37.84 59.8295 37.936 59.2535 38.128L57.7175 38.896L57.0455 50.704C55.8935 50.416 54.3575 49.744 52.6295 48.688V49.552C52.6295 49.648 52.5335 49.744 52.5335 49.936C52.5335 51.472 52.9175 54.064 53.1095 54.736C53.5895 56.176 55.3175 57.712 56.4695 58.192C56.4695 59.44 56.6615 64.816 57.0455 65.872L57.8135 68.656C59.2535 69.712 60.3095 69.808 61.5575 69.808C64.1495 69.52 64.5335 69.424 64.5335 67.504C64.5335 66.544 64.5335 62.224 64.3415 59.92C66.5495 60.112 68.0855 60.208 69.4295 60.208C70.3895 60.208 71.4455 60.112 72.6935 60.016H72.9815V60.4L73.3655 67.504C73.6535 69.136 75.8615 70.096 77.3015 70.096C78.0695 70.096 78.6455 69.904 79.5095 69.616C80.5655 68.464 80.5655 65.776 80.5655 64.336C80.5655 62.32 80.2775 60.592 79.9895 58.768C79.7015 57.136 79.4135 55.504 79.4135 53.68L78.7415 41.872C78.7415 41.008 78.6455 40.144 78.6455 39.472C78.5495 38.32 78.5495 37.264 78.5495 36.688C77.4935 36.208 75.7655 36.016 74.9975 36.016H73.6535C72.5015 36.688 71.7335 37.648 71.4455 38.704ZM143.551 0.975996C143.071 1.936 142.687 2.704 142.687 3.568C147.871 15.856 152.959 29.872 152.959 44.08C152.959 49.168 152.287 54.352 150.751 59.44C144.031 59.536 128.575 30.736 123.583 19.696C123.487 19.696 123.487 19.6 123.487 19.6C122.815 16.528 124.543 3.664 119.647 3.664C117.247 3.664 115.231 5.96799 115.231 10.096C115.231 13.264 115.711 17.68 117.343 22.576C114.271 37.84 111.487 53.104 108.703 62.896C108.511 63.472 108.511 64.048 108.511 64.72C108.511 67.696 109.951 71.248 111.871 71.248C114.559 71.248 115.039 69.328 115.519 67.6C119.455 53.968 121.087 45.808 122.047 31.6C128.095 49.744 144.415 70.96 151.519 71.248C160.543 67.888 161.119 51.088 161.119 42.736C161.119 26.224 155.455 12.4 143.551 0.975996ZM118.783 9.616C118.783 8.08 118.783 7.504 119.647 7.504C120.031 7.504 120.127 8.17599 120.127 8.752C120.127 9.904 119.935 11.152 119.647 12.496C119.071 11.344 118.783 10.384 118.783 9.616ZM166.827 66.256V66.448C166.827 67.984 167.787 70.288 169.707 72.784C170.859 71.728 172.011 70.864 172.395 69.712C183.915 69.232 196.587 61.36 196.587 49.552C196.587 46.96 195.339 42.928 193.707 41.872C191.691 40.528 189.291 40.048 187.179 40.048H187.083C187.947 39.952 189.099 39.568 189.099 38.8C189.099 38.224 188.235 37.552 186.699 36.88C185.451 36.4 183.723 36.112 181.611 36.112C172.011 36.112 163.179 43.696 163.179 53.968C163.179 57.808 164.235 61.936 166.827 66.256ZM187.371 45.904C189.675 45.904 191.211 46.96 191.211 48.976C191.211 55.696 181.611 61.552 176.523 61.552H175.275C178.827 52.048 182.283 45.904 187.371 45.904ZM182.379 40.912C177.003 42.544 173.259 48.304 169.131 58.864C168.843 57.904 168.747 56.944 168.747 55.984C168.747 50.128 172.299 43.312 180.363 41.392C181.611 41.008 183.051 40.624 184.587 40.336C183.819 40.432 183.147 40.72 182.379 40.912ZM185.067 40.24C184.875 40.24 184.779 40.24 184.587 40.336C184.779 40.24 184.875 40.24 185.067 40.24ZM210.534 9.51999C209.766 7.696 207.558 6.736 205.35 6.16C203.718 6.44799 203.142 7.12 202.662 8.17599C201.606 12.016 201.318 13.648 201.318 15.376C201.414 18.16 201.414 20.464 201.414 22.48C201.414 26.512 201.318 29.2 201.318 31.792V56.08C201.99 56.944 203.142 57.424 203.622 57.808C204.87 57.232 207.366 57.04 207.75 55.312C207.654 51.856 207.654 48.784 207.654 46.096C207.654 39.088 207.846 34.48 208.038 30.64C208.422 23.824 208.23 16.336 210.534 9.51999ZM204.294 61.072C201.702 61.072 199.974 62.992 199.974 65.584C199.974 67.792 202.086 69.424 204.39 69.424C206.502 69.424 208.422 67.408 208.422 65.296C208.422 62.992 206.502 61.072 204.294 61.072Z" fill="white"/>
</svg>
