<svg width="272" height="19" viewBox="0 0 272 19" fill="none" xmlns="http://www.w3.org/2000/svg">
<path d="M4.104 4.776H0.072V2.4H11.052V4.776H7.02V15H4.104V4.776ZM21.968 5.316V15H19.304V13.848C18.932 14.268 18.488 14.592 17.972 14.82C17.456 15.036 16.898 15.144 16.298 15.144C15.026 15.144 14.018 14.778 13.274 14.046C12.53 13.314 12.158 12.228 12.158 10.788V5.316H14.966V10.374C14.966 11.934 15.62 12.714 16.928 12.714C17.6 12.714 18.14 12.498 18.548 12.066C18.956 11.622 19.16 10.968 19.16 10.104V5.316H21.968ZM35.3911 5.172C36.2911 5.172 37.1071 5.382 37.8391 5.802C38.5831 6.21 39.1651 6.792 39.5851 7.548C40.0051 8.292 40.2151 9.162 40.2151 10.158C40.2151 11.154 40.0051 12.03 39.5851 12.786C39.1651 13.53 38.5831 14.112 37.8391 14.532C37.1071 14.94 36.2911 15.144 35.3911 15.144C34.1551 15.144 33.1831 14.754 32.4751 13.974V18.492H29.6671V5.316H32.3491V6.432C33.0451 5.592 34.0591 5.172 35.3911 5.172ZM34.9051 12.84C35.6251 12.84 36.2131 12.6 36.6691 12.12C37.1371 11.628 37.3711 10.974 37.3711 10.158C37.3711 9.342 37.1371 8.694 36.6691 8.214C36.2131 7.722 35.6251 7.476 34.9051 7.476C34.1851 7.476 33.5911 7.722 33.1231 8.214C32.6671 8.694 32.4391 9.342 32.4391 10.158C32.4391 10.974 32.6671 11.628 33.1231 12.12C33.5911 12.6 34.1851 12.84 34.9051 12.84ZM45.8426 5.172C47.3426 5.172 48.4946 5.532 49.2986 6.252C50.1026 6.96 50.5046 8.034 50.5046 9.474V15H47.8766V13.794C47.3486 14.694 46.3646 15.144 44.9246 15.144C44.1806 15.144 43.5326 15.018 42.9806 14.766C42.4406 14.514 42.0266 14.166 41.7386 13.722C41.4506 13.278 41.3066 12.774 41.3066 12.21C41.3066 11.31 41.6426 10.602 42.3146 10.086C42.9986 9.57 44.0486 9.312 45.4646 9.312H47.6966C47.6966 8.7 47.5106 8.232 47.1386 7.908C46.7666 7.572 46.2086 7.404 45.4646 7.404C44.9486 7.404 44.4386 7.488 43.9346 7.656C43.4426 7.812 43.0226 8.028 42.6746 8.304L41.6666 6.342C42.1946 5.97 42.8246 5.682 43.5566 5.478C44.3006 5.274 45.0626 5.172 45.8426 5.172ZM45.6266 13.254C46.1066 13.254 46.5326 13.146 46.9046 12.93C47.2766 12.702 47.5406 12.372 47.6966 11.94V10.95H45.7706C44.6186 10.95 44.0426 11.328 44.0426 12.084C44.0426 12.444 44.1806 12.732 44.4566 12.948C44.7446 13.152 45.1346 13.254 45.6266 13.254ZM46.9226 1.482H49.9466L46.6886 4.074H44.4926L46.9226 1.482ZM63.1415 5.316V13.38C63.1415 15.156 62.6795 16.476 61.7555 17.34C60.8315 18.204 59.4815 18.636 57.7055 18.636C56.7695 18.636 55.8815 18.522 55.0415 18.294C54.2015 18.066 53.5055 17.736 52.9535 17.304L54.0695 15.288C54.4775 15.624 54.9935 15.888 55.6175 16.08C56.2415 16.284 56.8655 16.386 57.4895 16.386C58.4615 16.386 59.1755 16.164 59.6315 15.72C60.0995 15.288 60.3335 14.628 60.3335 13.74V13.326C59.6015 14.13 58.5815 14.532 57.2735 14.532C56.3855 14.532 55.5695 14.34 54.8255 13.956C54.0935 13.56 53.5115 13.008 53.0795 12.3C52.6475 11.592 52.4315 10.776 52.4315 9.852C52.4315 8.928 52.6475 8.112 53.0795 7.404C53.5115 6.696 54.0935 6.15 54.8255 5.766C55.5695 5.37 56.3855 5.172 57.2735 5.172C58.6775 5.172 59.7455 5.634 60.4775 6.558V5.316H63.1415ZM57.8315 12.228C58.5755 12.228 59.1815 12.012 59.6495 11.58C60.1295 11.136 60.3695 10.56 60.3695 9.852C60.3695 9.144 60.1295 8.574 59.6495 8.142C59.1815 7.698 58.5755 7.476 57.8315 7.476C57.0875 7.476 56.4755 7.698 55.9955 8.142C55.5155 8.574 55.2755 9.144 55.2755 9.852C55.2755 10.56 55.5155 11.136 55.9955 11.58C56.4755 12.012 57.0875 12.228 57.8315 12.228ZM65.755 5.316H68.563V15H65.755V5.316ZM67.159 3.966C66.643 3.966 66.223 3.816 65.899 3.516C65.575 3.216 65.413 2.844 65.413 2.4C65.413 1.956 65.575 1.584 65.899 1.284C66.223 0.983999 66.643 0.833999 67.159 0.833999C67.675 0.833999 68.095 0.977999 68.419 1.266C68.743 1.554 68.905 1.914 68.905 2.346C68.905 2.814 68.743 3.204 68.419 3.516C68.095 3.816 67.675 3.966 67.159 3.966ZM77.055 5.172C78.255 5.172 79.221 5.532 79.953 6.252C80.697 6.972 81.069 8.04 81.069 9.456V15H78.261V9.888C78.261 9.12 78.093 8.55 77.757 8.178C77.421 7.794 76.935 7.602 76.299 7.602C75.591 7.602 75.027 7.824 74.607 8.268C74.187 8.7 73.977 9.348 73.977 10.212V15H71.169V5.316H73.851V6.45C74.223 6.042 74.685 5.73 75.237 5.514C75.789 5.286 76.395 5.172 77.055 5.172ZM87.5204 5.172C89.0204 5.172 90.1724 5.532 90.9764 6.252C91.7804 6.96 92.1824 8.034 92.1824 9.474V15H89.5544V13.794C89.0264 14.694 88.0424 15.144 86.6024 15.144C85.8584 15.144 85.2104 15.018 84.6584 14.766C84.1184 14.514 83.7044 14.166 83.4164 13.722C83.1284 13.278 82.9844 12.774 82.9844 12.21C82.9844 11.31 83.3204 10.602 83.9924 10.086C84.6764 9.57 85.7264 9.312 87.1424 9.312H89.3744C89.3744 8.7 89.1884 8.232 88.8164 7.908C88.4444 7.572 87.8864 7.404 87.1424 7.404C86.6264 7.404 86.1164 7.488 85.6124 7.656C85.1204 7.812 84.7004 8.028 84.3524 8.304L83.3444 6.342C83.8724 5.97 84.5024 5.682 85.2344 5.478C85.9784 5.274 86.7404 5.172 87.5204 5.172ZM87.3044 13.254C87.7844 13.254 88.2104 13.146 88.5824 12.93C88.9544 12.702 89.2184 12.372 89.3744 11.94V10.95H87.4484C86.2964 10.95 85.7204 11.328 85.7204 12.084C85.7204 12.444 85.8584 12.732 86.1344 12.948C86.4224 13.152 86.8124 13.254 87.3044 13.254ZM105.707 5.172C106.907 5.172 107.873 5.532 108.605 6.252C109.349 6.972 109.721 8.04 109.721 9.456V15H106.913V9.888C106.913 9.12 106.745 8.55 106.409 8.178C106.073 7.794 105.587 7.602 104.951 7.602C104.243 7.602 103.679 7.824 103.259 8.268C102.839 8.7 102.629 9.348 102.629 10.212V15H99.8214V5.316H102.503V6.45C102.875 6.042 103.337 5.73 103.889 5.514C104.441 5.286 105.047 5.172 105.707 5.172ZM116.98 15.144C115.96 15.144 115.042 14.934 114.226 14.514C113.422 14.082 112.792 13.488 112.336 12.732C111.88 11.976 111.652 11.118 111.652 10.158C111.652 9.198 111.88 8.34 112.336 7.584C112.792 6.828 113.422 6.24 114.226 5.82C115.042 5.388 115.96 5.172 116.98 5.172C118 5.172 118.912 5.388 119.716 5.82C120.52 6.24 121.15 6.828 121.606 7.584C122.062 8.34 122.29 9.198 122.29 10.158C122.29 11.118 122.062 11.976 121.606 12.732C121.15 13.488 120.52 14.082 119.716 14.514C118.912 14.934 118 15.144 116.98 15.144ZM116.98 12.84C117.7 12.84 118.288 12.6 118.744 12.12C119.212 11.628 119.446 10.974 119.446 10.158C119.446 9.342 119.212 8.694 118.744 8.214C118.288 7.722 117.7 7.476 116.98 7.476C116.26 7.476 115.666 7.722 115.198 8.214C114.73 8.694 114.496 9.342 114.496 10.158C114.496 10.974 114.73 11.628 115.198 12.12C115.666 12.6 116.26 12.84 116.98 12.84ZM132.343 5.532H134.827V7.692H132.415V15H129.607V7.692H128.113V5.532H129.607V5.1C129.607 3.996 129.931 3.12 130.579 2.472C131.239 1.824 132.163 1.5 133.351 1.5C133.771 1.5 134.167 1.548 134.539 1.644C134.923 1.728 135.241 1.854 135.493 2.022L134.755 4.056C134.431 3.828 134.053 3.714 133.621 3.714C132.769 3.714 132.343 4.182 132.343 5.118V5.532ZM145.982 5.316V15H143.318V13.848C142.946 14.268 142.502 14.592 141.986 14.82C141.47 15.036 140.912 15.144 140.312 15.144C139.04 15.144 138.032 14.778 137.288 14.046C136.544 13.314 136.172 12.228 136.172 10.788V5.316H138.98V10.374C138.98 11.934 139.634 12.714 140.942 12.714C141.614 12.714 142.154 12.498 142.562 12.066C142.97 11.622 143.174 10.968 143.174 10.104V5.316H145.982ZM158.069 10.194C158.069 10.23 158.051 10.482 158.015 10.95H150.689C150.821 11.55 151.133 12.024 151.625 12.372C152.117 12.72 152.729 12.894 153.461 12.894C153.965 12.894 154.409 12.822 154.793 12.678C155.189 12.522 155.555 12.282 155.891 11.958L157.385 13.578C156.473 14.622 155.141 15.144 153.389 15.144C152.297 15.144 151.331 14.934 150.491 14.514C149.651 14.082 149.003 13.488 148.547 12.732C148.091 11.976 147.863 11.118 147.863 10.158C147.863 9.21 148.085 8.358 148.529 7.602C148.985 6.834 149.603 6.24 150.383 5.82C151.175 5.388 152.057 5.172 153.029 5.172C153.977 5.172 154.835 5.376 155.603 5.784C156.371 6.192 156.971 6.78 157.403 7.548C157.847 8.304 158.069 9.186 158.069 10.194ZM153.047 7.296C152.411 7.296 151.877 7.476 151.445 7.836C151.013 8.196 150.749 8.688 150.653 9.312H155.423C155.327 8.7 155.063 8.214 154.631 7.854C154.199 7.482 153.671 7.296 153.047 7.296ZM174.522 10.194C174.522 10.23 174.504 10.482 174.468 10.95H167.142C167.274 11.55 167.586 12.024 168.078 12.372C168.57 12.72 169.182 12.894 169.914 12.894C170.418 12.894 170.862 12.822 171.246 12.678C171.642 12.522 172.008 12.282 172.344 11.958L173.838 13.578C172.926 14.622 171.594 15.144 169.842 15.144C168.75 15.144 167.784 14.934 166.944 14.514C166.104 14.082 165.456 13.488 165 12.732C164.544 11.976 164.316 11.118 164.316 10.158C164.316 9.21 164.538 8.358 164.982 7.602C165.438 6.834 166.056 6.24 166.836 5.82C167.628 5.388 168.51 5.172 169.482 5.172C170.43 5.172 171.288 5.376 172.056 5.784C172.824 6.192 173.424 6.78 173.856 7.548C174.3 8.304 174.522 9.186 174.522 10.194ZM169.5 7.296C168.864 7.296 168.33 7.476 167.898 7.836C167.466 8.196 167.202 8.688 167.106 9.312H171.876C171.78 8.7 171.516 8.214 171.084 7.854C170.652 7.482 170.124 7.296 169.5 7.296ZM182.278 5.172C183.478 5.172 184.444 5.532 185.176 6.252C185.92 6.972 186.292 8.04 186.292 9.456V15H183.484V9.888C183.484 9.12 183.316 8.55 182.98 8.178C182.644 7.794 182.158 7.602 181.522 7.602C180.814 7.602 180.25 7.824 179.83 8.268C179.41 8.7 179.2 9.348 179.2 10.212V15H176.392V5.316H179.074V6.45C179.446 6.042 179.908 5.73 180.46 5.514C181.012 5.286 181.618 5.172 182.278 5.172ZM193.622 15.144C192.59 15.144 191.66 14.934 190.832 14.514C190.016 14.082 189.374 13.488 188.906 12.732C188.45 11.976 188.222 11.118 188.222 10.158C188.222 9.198 188.45 8.34 188.906 7.584C189.374 6.828 190.016 6.24 190.832 5.82C191.66 5.388 192.59 5.172 193.622 5.172C194.642 5.172 195.53 5.388 196.286 5.82C197.054 6.24 197.612 6.846 197.96 7.638L195.782 8.808C195.278 7.92 194.552 7.476 193.604 7.476C192.872 7.476 192.266 7.716 191.786 8.196C191.306 8.676 191.066 9.33 191.066 10.158C191.066 10.986 191.306 11.64 191.786 12.12C192.266 12.6 192.872 12.84 193.604 12.84C194.564 12.84 195.29 12.396 195.782 11.508L197.96 12.696C197.612 13.464 197.054 14.064 196.286 14.496C195.53 14.928 194.642 15.144 193.622 15.144ZM204.062 15.144C203.042 15.144 202.124 14.934 201.308 14.514C200.504 14.082 199.874 13.488 199.418 12.732C198.962 11.976 198.734 11.118 198.734 10.158C198.734 9.198 198.962 8.34 199.418 7.584C199.874 6.828 200.504 6.24 201.308 5.82C202.124 5.388 203.042 5.172 204.062 5.172C205.082 5.172 205.994 5.388 206.798 5.82C207.602 6.24 208.232 6.828 208.688 7.584C209.144 8.34 209.372 9.198 209.372 10.158C209.372 11.118 209.144 11.976 208.688 12.732C208.232 13.488 207.602 14.082 206.798 14.514C205.994 14.934 205.082 15.144 204.062 15.144ZM204.062 12.84C204.782 12.84 205.37 12.6 205.826 12.12C206.294 11.628 206.528 10.974 206.528 10.158C206.528 9.342 206.294 8.694 205.826 8.214C205.37 7.722 204.782 7.476 204.062 7.476C203.342 7.476 202.748 7.722 202.28 8.214C201.812 8.694 201.578 9.342 201.578 10.158C201.578 10.974 201.812 11.628 202.28 12.12C202.748 12.6 203.342 12.84 204.062 12.84ZM217.135 5.172C218.335 5.172 219.301 5.532 220.033 6.252C220.777 6.972 221.149 8.04 221.149 9.456V15H218.341V9.888C218.341 9.12 218.173 8.55 217.837 8.178C217.501 7.794 217.015 7.602 216.379 7.602C215.671 7.602 215.107 7.824 214.687 8.268C214.267 8.7 214.057 9.348 214.057 10.212V15H211.249V5.316H213.931V6.45C214.303 6.042 214.765 5.73 215.317 5.514C215.869 5.286 216.475 5.172 217.135 5.172ZM229.94 14.532C229.664 14.736 229.322 14.892 228.914 15C228.518 15.096 228.098 15.144 227.654 15.144C226.502 15.144 225.608 14.85 224.972 14.262C224.348 13.674 224.036 12.81 224.036 11.67V7.692H222.542V5.532H224.036V3.174H226.844V5.532H229.256V7.692H226.844V11.634C226.844 12.042 226.946 12.36 227.15 12.588C227.366 12.804 227.666 12.912 228.05 12.912C228.494 12.912 228.872 12.792 229.184 12.552L229.94 14.532ZM234.199 6.594C234.535 6.126 234.985 5.772 235.549 5.532C236.125 5.292 236.785 5.172 237.529 5.172V7.764C237.217 7.74 237.007 7.728 236.899 7.728C236.095 7.728 235.465 7.956 235.009 8.412C234.553 8.856 234.325 9.528 234.325 10.428V15H231.517V5.316H234.199V6.594ZM243.052 5.172C244.552 5.172 245.704 5.532 246.508 6.252C247.312 6.96 247.714 8.034 247.714 9.474V15H245.086V13.794C244.558 14.694 243.574 15.144 242.134 15.144C241.39 15.144 240.742 15.018 240.19 14.766C239.65 14.514 239.236 14.166 238.948 13.722C238.66 13.278 238.516 12.774 238.516 12.21C238.516 11.31 238.852 10.602 239.524 10.086C240.208 9.57 241.258 9.312 242.674 9.312H244.906C244.906 8.7 244.72 8.232 244.348 7.908C243.976 7.572 243.418 7.404 242.674 7.404C242.158 7.404 241.648 7.488 241.144 7.656C240.652 7.812 240.232 8.028 239.884 8.304L238.876 6.342C239.404 5.97 240.034 5.682 240.766 5.478C241.51 5.274 242.272 5.172 243.052 5.172ZM242.836 13.254C243.316 13.254 243.742 13.146 244.114 12.93C244.486 12.702 244.75 12.372 244.906 11.94V10.95H242.98C241.828 10.95 241.252 11.328 241.252 12.084C241.252 12.444 241.39 12.732 241.666 12.948C241.954 13.152 242.344 13.254 242.836 13.254ZM260.224 1.644V15H257.542V13.884C256.846 14.724 255.838 15.144 254.518 15.144C253.606 15.144 252.778 14.94 252.034 14.532C251.302 14.124 250.726 13.542 250.306 12.786C249.886 12.03 249.676 11.154 249.676 10.158C249.676 9.162 249.886 8.286 250.306 7.53C250.726 6.774 251.302 6.192 252.034 5.784C252.778 5.376 253.606 5.172 254.518 5.172C255.754 5.172 256.72 5.562 257.416 6.342V1.644H260.224ZM255.004 12.84C255.712 12.84 256.3 12.6 256.768 12.12C257.236 11.628 257.47 10.974 257.47 10.158C257.47 9.342 257.236 8.694 256.768 8.214C256.3 7.722 255.712 7.476 255.004 7.476C254.284 7.476 253.69 7.722 253.222 8.214C252.754 8.694 252.52 9.342 252.52 10.158C252.52 10.974 252.754 11.628 253.222 12.12C253.69 12.6 254.284 12.84 255.004 12.84ZM266.729 5.172C268.229 5.172 269.381 5.532 270.185 6.252C270.989 6.96 271.391 8.034 271.391 9.474V15H268.763V13.794C268.235 14.694 267.251 15.144 265.811 15.144C265.067 15.144 264.419 15.018 263.867 14.766C263.327 14.514 262.913 14.166 262.625 13.722C262.337 13.278 262.193 12.774 262.193 12.21C262.193 11.31 262.529 10.602 263.201 10.086C263.885 9.57 264.935 9.312 266.351 9.312H268.583C268.583 8.7 268.397 8.232 268.025 7.908C267.653 7.572 267.095 7.404 266.351 7.404C265.835 7.404 265.325 7.488 264.821 7.656C264.329 7.812 263.909 8.028 263.561 8.304L262.553 6.342C263.081 5.97 263.711 5.682 264.443 5.478C265.187 5.274 265.949 5.172 266.729 5.172ZM266.513 13.254C266.993 13.254 267.419 13.146 267.791 12.93C268.163 12.702 268.427 12.372 268.583 11.94V10.95H266.657C265.505 10.95 264.929 11.328 264.929 12.084C264.929 12.444 265.067 12.732 265.343 12.948C265.631 13.152 266.021 13.254 266.513 13.254Z" fill="white"/>
</svg>
